<svg width="22" height="22" viewBox="0 0 22 22" fill="none" xmlns="http://www.w3.org/2000/svg">
<g clip-path="url(#clip0_1867_41628)">
<path d="M9.16797 22C7.2733 22 5.73047 20.4582 5.73047 18.5625C5.73047 18.183 6.03847 17.875 6.41797 17.875C6.79747 17.875 7.10547 18.183 7.10547 18.5625C7.10547 19.7002 8.03132 20.625 9.16797 20.625C10.3046 20.625 11.2305 19.7002 11.2305 18.5625C11.2305 18.183 11.5385 17.875 11.918 17.875C12.2975 17.875 12.6055 18.183 12.6055 18.5625C12.6055 20.4582 11.0628 22 9.16797 22Z" fill="#303030"/>
<path d="M16.7291 19.2497H1.60411C0.719555 19.2497 3.04645e-07 18.5301 3.04645e-07 17.6456C-0.000142511 17.4139 0.0499298 17.1849 0.146769 16.9744C0.243609 16.764 0.384915 16.577 0.560957 16.4263C0.583946 16.4062 0.608653 16.3879 0.634305 16.3713C1.97991 15.1971 2.75 13.5076 2.75 11.7238V9.1663C2.75 6.18083 4.77305 3.61779 7.66975 2.933C8.04001 2.8477 8.41045 3.07415 8.49759 3.44458C8.58451 3.81403 8.3554 4.18429 7.98699 4.27139C5.71265 4.8085 4.125 6.8215 4.125 9.1663V11.7238C4.125 13.9385 3.15416 16.0341 1.46395 17.4722C1.4502 17.4833 1.43829 17.4933 1.42351 17.5034C1.39166 17.5439 1.37455 17.5941 1.375 17.6456C1.375 17.7701 1.47959 17.8747 1.60411 17.8747H16.7291C16.8538 17.8747 16.9584 17.7701 16.9584 17.6456C16.9584 17.5813 16.9345 17.5346 16.9089 17.5034C16.8951 17.4933 16.8822 17.4833 16.8694 17.4722C16.0481 16.7719 15.3999 15.9268 14.9436 14.9597C14.7804 14.6168 14.927 14.2071 15.2707 14.0439C15.3523 14.0052 15.4407 13.983 15.5309 13.9785C15.6211 13.9741 15.7113 13.9875 15.7963 14.0179C15.8813 14.0484 15.9595 14.0954 16.0263 14.1562C16.0931 14.2169 16.1473 14.2903 16.1856 14.3721C16.5485 15.1384 17.0573 15.8113 17.7008 16.3741C17.7246 16.3906 17.7494 16.4081 17.7704 16.4263C17.9471 16.5766 18.0889 16.7634 18.1862 16.974C18.2834 17.1845 18.3336 17.4137 18.3334 17.6456C18.3334 18.5301 17.6138 19.2497 16.7291 19.2497Z" fill="#303030"/>
<path d="M16.0402 11.9166C12.755 11.9166 10.082 9.24365 10.082 5.95839C10.082 2.67296 12.755 0 16.0402 0C19.3257 0 21.9986 2.67296 21.9986 5.95839C21.9986 9.24365 19.3257 11.9166 16.0402 11.9166ZM16.0402 1.375C13.513 1.375 11.457 3.43114 11.457 5.95839C11.457 8.48564 13.513 10.5416 16.0402 10.5416C18.5675 10.5416 20.6236 8.48564 20.6236 5.95839C20.6236 3.43114 18.5675 1.375 16.0402 1.375Z" fill="#303030"/>
<path d="M16.2709 8.70877C15.8914 8.70877 15.5834 8.40077 15.5834 8.02127V5.04199H15.125C14.7455 5.04199 14.4375 4.73399 14.4375 4.35449C14.4375 3.97499 14.7455 3.66699 15.125 3.66699H16.2709C16.6504 3.66699 16.9584 3.97499 16.9584 4.35449V8.02127C16.9584 8.40077 16.6504 8.70877 16.2709 8.70877Z" fill="#303030"/>
</g>
<defs>
<clipPath id="clip0_1867_41628">
<rect width="22" height="22" fill="white"/>
</clipPath>
</defs>
</svg>
